<?xml version="1.0" encoding="UTF-8"?><svg id="Layer_1" xmlns="http://www.w3.org/2000/svg" viewBox="0 0 100 100"><defs><style>.cls-1{fill:#00a5a8;}.cls-2{fill:#7e45af;}.cls-3{fill:#e37820;}</style></defs><rect class="cls-1" x="15.91" y="36.22" width="34.95" height="2.13"/><rect class="cls-1" x="15.91" y="49.08" width="34.78" height="2.13"/><rect class="cls-1" x="15.91" y="61.92" width="28.77" height="2.13"/><rect class="cls-1" x="15.91" y="74.71" width="28.77" height="2.13"/><path class="cls-2" d="M75.89,95.19c-13.29,0-24.11-10.81-24.11-24.11s10.81-24.09,24.11-24.09,24.11,10.81,24.11,24.11-10.83,24.09-24.11,24.09Zm0-45.75c-11.93,0-21.64,9.71-21.64,21.64s9.71,21.64,21.64,21.64,21.64-9.71,21.64-21.64-9.71-21.64-21.64-21.64Z"/><path class="cls-3" d="M51.67,23.16v1.4h7.06v23.63c.46-.35,.92-.7,1.4-1.01V23.16h-8.46Z"/><path class="cls-3" d="M8.21,24.56h7.06v-1.4H6.81V88.72H53.37c-.36-.46-.71-.92-1.05-1.4H8.21V24.56Z"/><path class="cls-2" d="M51.09,16.35c-.58-1.58-2.08-2.72-3.86-2.72h-5.06v-.46c0-4.79-3.91-8.7-8.7-8.7s-8.7,3.91-8.7,8.7v.46h-5.04c-1.78,0-3.28,1.14-3.86,2.72H0V95.52H61.04c-1.36-.83-2.66-1.76-3.87-2.8H2.8V19.16H15.27v9.16H51.67v-9.16h12.47v25.84c.91-.41,1.85-.78,2.8-1.09V16.35h-15.85Zm-24.18-3.18c0-3.61,2.94-6.57,6.57-6.57s6.57,2.94,6.57,6.57v.46h-13.14v-.46Zm21.96,12.34H18.07v-8.86c.36-.53,.97-.89,1.65-.89h27.5c.69,0,1.3,.35,1.65,.89v8.86Z"/><polygon class="cls-3" points="71.84 84.19 62.11 75.75 64.39 72.94 71.42 79.15 84.87 58.96 87.51 60.7 71.84 84.19"/></svg>