<?xml version="1.0" encoding="UTF-8"?><svg id="Layer_1" xmlns="http://www.w3.org/2000/svg" viewBox="0 0 100 100"><defs><style>.cls-1{fill:#00a5a8;}.cls-2{fill:#7e45af;}.cls-3{fill:#e37820;}</style></defs><path class="cls-1" d="M41.53,70.47l-12.3-13.84c-.84-.94-.75-2.38,.19-3.21,.94-.84,2.38-.75,3.21,.19l8.65,9.73,26.28-34.02c.77-.99,2.2-1.18,3.19-.41,1,.77,1.18,2.2,.41,3.19l-29.64,38.37Z"/><g><path class="cls-2" d="M50,4.29c4.72,4.18,16.61,12.7,35.81,13.54v30.53c0,12.83-6.09,25.13-16.3,32.91l-19.51,14.87-19.51-14.87c-10.2-7.78-16.3-20.08-16.3-32.91V17.83c19.2-.84,31.09-9.36,35.81-13.54m0-4.29S37.04,14.81,11.11,14.81V48.36c0,13.87,6.48,26.95,17.51,35.35l21.38,16.29,21.38-16.29c11.03-8.41,17.51-21.48,17.51-35.35V14.81C62.96,14.81,50,0,50,0"/><path class="cls-3" d="M50,91.66l-17.36-13.22c-9.32-7.11-14.89-18.35-14.89-30.07V21.15l.69-.07c14.72-1.51,25.04-7.28,31.1-11.86l.46-.35,.46,.35c6.06,4.58,16.38,10.35,31.1,11.86l.69,.07v27.2c0,11.72-5.57,22.96-14.89,30.07l-17.36,13.22ZM19.29,22.54v25.82c0,11.25,5.34,22.03,14.29,28.84l16.42,12.52,16.43-12.52c8.95-6.82,14.29-17.6,14.29-28.84V22.54c-14.34-1.61-24.54-7.17-30.71-11.73-6.17,4.56-16.37,10.13-30.71,11.73Z"/></g></svg>